<svg version="1" xmlns="http://www.w3.org/2000/svg" width="3333.333" height="3333.333" viewBox="0 0 2500.000000 2500.000000"><path d="M723.2 319C438.1 420.6 204.7 504 204.6 504.2c-.4.4 158.2 1372.8 158.8 1374.4.4 1.1 879.5 489 880.6 488.7.7-.2 893.1-494.1 893.5-494.5.5-.5 172.5-1369.9 172.5-1373 0-2.5-.8-2.9-14.7-7.6-8.2-2.7-247.8-84.4-532.6-181.6-284.8-97.1-518.5-176.6-519.5-176.5-.9 0-234.9 83.2-520 184.9zm522.2-99.8c.7 1.8 171.1 365.3 378.6 807.8 207.5 442.5 377.4 805.1 377.7 805.8.5 1.1-1.6 1.3-10.8.8-6.3-.3-53.5-1.3-104.9-2.2-51.4-.8-104.5-1.8-117.9-2.2l-24.4-.7-79.6-184.2-79.5-184.3H934.2l-72.8 181.9-72.7 181.9-22.1.6c-32.9.9-247.8 4.7-248.1 4.4-.1-.2 162.8-363 362.1-806.3C1079.9 579.2 1243 216.4 1243 216.2c.1-1.1 1.2.4 2.4 3z"/><path d="M1203.6 832.2c-23.1 54.6-71.6 169.7-107.8 255.6-36.3 86-65.8 156.6-65.5 156.8.2.2 103.8.3 230.3.2l230-.3-118.6-248c-65.3-136.4-120.4-251.5-122.6-255.8l-4-7.8-41.8 99.3z"/></svg>